General
Complete name                    : Koreyoshi Kurahara ΓÇô 1960 ΓÇô The Warped Ones.mkv
Format                           : Matroska
File size                        : 1.34 GiB
Duration                         : 1h 15mn
Overall bit rate                 : 2 536 Kbps
Encoded date                     : UTC 2011-09-21 18:07:00
Writing application              : mkvmerge v4.8.0 ('I Got The...') built on May 24 2011 03:12:58
Writing library                  : libebml v1.2.0 + libmatroska v1.1.0

Video
ID                               : 2
Format                           : AVC
Format/Info                      : Advanced Video Codec
Format profile                   : High@L3.0
Format settings, CABAC           : Yes
Format settings, ReFrames        : 6 frames
Muxing mode                      : Header stripping
Codec ID                         : V_MPEG4/ISO/AVC
Duration                         : 1h 15mn
Bit rate                         : 2 101 Kbps
Width                            : 716 pixels
Height                           : 368 pixels
Display aspect ratio             : 2.35:1
Original display aspect ratio    : 2.35:1
Frame rate                       : 23.976 fps
Color space                      : YUV
Chroma subsampling               : 4:2:0
Bit depth                        : 8 bits
Scan type                        : Progressive
Bits/(Pixel*Frame)               : 0.333
Stream size                      : 1.11 GiB (83%)
Language                         : Japanese

Audio
ID                               : 1
Format                           : AC-3
Format/Info                      : Audio Coding 3
Mode extension                   : CM (complete main)
Muxing mode                      : Header stripping
Codec ID                         : A_AC3
Duration                         : 1h 15mn
Bit rate mode                    : Constant
Bit rate                         : 384 Kbps
Channel(s)                       : 1 channel
Channel positions                : Front: C
Sampling rate                    : 48.0 KHz
Bit depth                        : 16 bits
Compression mode                 : Lossy
Stream size                      : 208 MiB (15%)
Language                         : Japanese

Text
ID                               : 3
Format                           : UTF-8
Codec ID                         : S_TEXT/UTF8
Codec ID/Info                    : UTF-8 Plain Text
Language                         : English
